<?xml version="1.0" encoding="utf-8" ?><svg xmlns="http://www.w3.org/2000/svg" xmlns:xlink="http://www.w3.org/1999/xlink" width="1024" height="1024" viewBox="0 0 1024 1024"><path fill="#202438" d="M0 0L1024 0L1024 1024L0 1024L0 0Z"/><path fill="#52F4DE" d="M579.179 26.75C587.906 26.0258 600.64 26.563 609.352 27.2716C652.304 30.8951 693.918 43.9939 731.202 65.6256C804.546 107.418 858.324 176.59 880.745 257.973C913.697 381.938 856.788 489.709 753.984 559.307C686.579 604.941 617.02 626.992 539.326 648.325L422.529 679.366C422.67 726.63 422.573 773.895 422.236 821.158C426.847 826.571 438.041 836.29 443.588 841.379L482.224 876.907C487.442 881.692 493.219 886.315 498.119 891.34C502.412 895.743 500.279 905.695 494.43 908.062C479.369 914.155 464.328 920.296 449.279 926.419L359.1 963.492C323.518 977.703 287.924 993.663 252.208 1007.72C249.645 1008.73 245.196 1010.62 242.972 1009.07C237.629 1005.36 231.733 999.921 226.881 995.648C214.974 985.17 203.12 974.633 191.319 964.037C167.188 942.442 142.544 921.389 118.778 899.385C110.866 892.06 113.701 884.856 123.243 881.54C135.999 877.105 148.88 872.66 161.741 868.543C176.419 863.844 190.933 857.857 205.674 853.527L205.543 291.245C184.725 272.8 164.081 254.161 143.613 235.329L122.363 215.653C118.37 211.975 114.039 208.324 110.32 204.386C105.159 198.92 106.595 191.423 113.769 188.536C124.156 184.357 134.588 180.127 144.963 175.865L235.278 139.091L347.511 93.3544C371.066 83.7125 395.077 73.4363 418.79 64.3147C435.972 57.8035 453.367 51.873 470.948 46.5333C506.084 35.5518 542.43 28.908 579.179 26.75Z"/><path fill="#202438" d="M583.83 41.2248C631.537 39.528 681.511 54.0582 722.752 77.6268C793.352 117.62 845.246 183.938 867.09 262.083C884.286 324.35 875.582 390.924 842.955 446.677C760.836 590.183 566.971 624.673 420.906 664.59C417.785 662.835 412.314 660.153 409.958 663.6C407.394 667.354 408.24 681.709 408.221 686.174L408.133 718.499L408.407 828.591C413.243 833.805 421.205 840.705 426.643 845.764L454.605 871.694C464.197 880.424 472.302 887.344 481.476 896.654C477.554 898.785 470.267 901.758 466.101 903.53C455.765 907.874 445.402 912.151 435.012 916.362C410.3 926.474 385.952 936.903 361.126 946.794C324.088 962.997 284.932 978.437 247.536 993.964C228.987 979.524 205.26 957.131 187.45 941.245C177.8 932.514 168.1 923.84 158.348 915.224C150.145 908.076 141.383 900.944 133.577 893.393C146.561 887.878 212.46 868.512 219.299 861.694C220.319 856.429 220.029 845.466 220.025 839.541C220.037 827.253 219.982 814.966 219.859 802.679C219.546 769.877 219.451 737.073 219.573 704.27L219.989 285.122C211.84 276.949 202.343 269.811 194.092 261.835C172.208 240.679 147.61 220.824 126.257 199.346C135.551 194.496 155.785 187.365 166.518 183.044L241.439 152.367C280.487 136.194 319.62 120.227 358.836 104.466C433.832 73.7605 500.905 44.5476 583.83 41.2248Z"/><path fill="#52F4DE" d="M579.551 53.7165C646.353 51.1624 709.731 77.1295 760.663 119.415C815.052 164.569 854.957 233.369 861.407 304.329C867.286 369.005 847.661 426.925 806.179 476.587C787.551 498.89 766.257 517.406 742.5 534.009C666.178 587.346 575.565 610.654 486.813 634.379C467.637 639.606 448.43 644.714 429.192 649.703C410.746 654.654 407.996 660.678 408.474 637.768C415.841 635.046 429.634 631.753 437.52 629.682L488.726 616.392C619.752 582.882 781.742 535.833 833.892 395.402C879.959 271.351 789.703 127.35 671.279 84.8293C644.164 74.8589 615.529 69.6551 586.639 69.4483C574.347 69.4772 562.839 71.1038 550.702 72.7116C497.536 79.7544 450.115 98.5048 400.909 118.445C378.545 127.283 356.248 136.29 334.02 145.464C298.771 159.448 263.681 173.83 228.757 188.607C215.627 194.034 197.498 200.3 185.199 206.118C184.423 208.709 184.159 210.875 183.753 213.531C196.773 224.118 210.693 238.025 223.049 249.416C231.079 256.818 241.246 265.294 248.311 273.23L248.409 620.965L248.417 767.177C248.476 802.206 248.881 837.277 248.43 872.301C248.406 874.188 248.735 878.989 247.738 880.561C244.572 885.551 204.436 897.112 196.24 900.207C194.288 903.91 194.124 904.631 192.953 908.665C196.534 912.818 209.703 923.666 214.639 928.096L237.758 948.9C242.068 952.759 247.68 958.033 252.18 961.297C288.898 946.362 325.442 930.236 362.354 915.165L404.367 897.847C410.517 895.342 424.5 890.003 429.678 886.96C420.096 878.488 410.581 869.94 401.134 861.318C396.528 857.173 382.927 845.554 379.984 840.857L380.01 702.329L379.984 653.416C379.985 644.819 379.054 624.991 381.847 617.64C383.658 615.62 387.772 614.193 390.439 613.557C407.007 609.612 423.522 605.423 440.023 601.211C479.852 591.244 519.475 580.466 558.865 568.883C656.577 539.639 766.114 494.315 806.741 391.73C860.352 256.361 732.247 97.5446 593.045 97.0054C517.228 96.7117 436.463 133.266 366.775 161.093L273.35 199.074C258.989 204.962 242.814 210.986 228.802 217.255L257.978 244.022C262.896 248.557 271.385 256.006 275.116 261.075C275.544 296.509 275.16 332.78 275.214 368.319L275.244 641.568L275.243 807.893C275.256 830.735 276.117 873.05 274.611 896.817C274.212 903.107 248.823 910.212 240.606 913.761C245.958 919.063 251.716 924.386 257.162 929.751C297.357 912.612 338.525 896.588 378.598 879.245C372.672 874.262 357.09 861.397 353.143 855.907C352.37 847.51 352.858 832.686 352.88 823.728L352.966 765.938L352.98 580.668L353.168 351.683L353.044 276.963C353.06 265.235 352.713 248.776 353.557 237.264C357.505 234.583 365.214 231.618 369.887 229.682C379.455 225.701 389.067 221.824 398.72 218.053C453.564 196.117 507.84 171.24 567.847 170.025C610.946 169.151 652.633 183.068 684.237 213.065C712.451 239.844 735.47 279.8 736.968 319.237C738.295 354.146 719.182 392.244 695.204 417.234C652.828 461.399 601.305 479.189 544.337 495.996C513.924 504.898 483.351 513.245 452.634 521.033L413.128 531.282C406.411 533.037 395.229 536.629 388.763 536.983C378.6 537.541 379.999 520 380.002 513.089L380.051 487.952L380.017 254.618C384.26 252.555 392.415 249.663 397.118 247.788L428.659 234.995C485.517 211.876 555.175 183.426 616.991 203.706C655.634 215.946 681.624 243.827 699.529 278.62C733.956 343.308 680.819 408.186 623.913 436.422C560.008 468.13 485.476 483.459 417.16 503.17C415.114 503.76 410.942 503.525 410.191 500.704C405.965 484.843 414.073 485.562 426.897 482.419C435.587 480.234 444.26 477.979 452.914 475.656C495.235 464.477 538.935 454.74 579.652 438.855C623.39 421.791 667.561 396.607 686.98 351.48C695.642 332.658 696.016 311.813 687.933 292.692C675.322 262.859 651.594 235.31 621.338 222.718C564.588 199.099 499.601 224.025 446.259 245.533L396.542 265.441L396.723 521.4C410.85 516.459 425.669 513.802 440.563 509.251C536.802 479.844 666.947 465.935 714.439 362.686C743.797 298.86 691.938 220.839 632.603 196.028C569.234 169.531 503.493 192.542 443.185 215.945C417.824 225.818 392.569 235.961 367.423 246.371C366.831 274.804 367.199 304.297 367.204 332.78L367.19 497.852L367.354 729.416C367.39 768.223 366.549 809.04 367.234 847.598C372.471 852.116 404.665 879.453 405.245 883.438C403.997 885.312 384.399 892.682 380.815 894.194C359.678 903.161 338.481 911.986 317.226 920.669L279.141 936.392C271.22 939.703 262.163 943.759 254.222 946.561C250.448 943.988 215.516 913.589 214.66 911.745C214.09 910.519 214.328 909.475 214.839 908.271C215.22 907.373 215.964 906.277 216.786 905.735C220.669 903.178 254.195 892.795 261.424 890.413C260.583 863.27 261.112 832.555 261.048 805.205L260.921 637.304L260.934 417.837L261.398 267.073C256.74 262.361 250.001 256.67 244.979 252.13C236.874 244.756 228.816 237.33 220.806 229.853C218.106 227.352 204.697 215.941 204.976 213.07C211.182 208.17 229.002 201.56 237.063 198.225L290.739 176.316C326.62 161.449 362.628 146.887 398.758 132.633C415.968 125.758 433.076 118.552 450.469 112.162C467.512 105.844 484.833 100.303 502.378 95.5564C558.471 80.4441 605.996 75.5288 661.362 94.7999C676.602 99.9976 691.306 106.65 705.271 114.664C716.316 121.035 723.429 126.757 733.408 134.418C776.309 167.351 811.844 218.195 825.753 270.743C839.754 323.638 833.849 377.995 805.972 425.702C763.32 498.692 686.613 540.811 609.194 568.25C589.04 575.393 570.362 580.494 550.068 586.462C510.839 598.028 471.376 608.786 431.705 618.729C419.821 621.805 407.92 624.49 396.015 627.638C396.006 696.139 396.845 766.149 395.841 834.506C404.592 842.773 455.761 887.243 458.32 892.625C456.653 895.132 425.853 906.89 421.333 908.736L298.961 959.469C286.021 964.802 273.024 970.046 260.206 975.667C256.869 977.13 253.889 978.545 250.377 979.539C245.186 976.811 165.816 906.358 164.511 903.925C163.528 902.089 163.303 899.82 164.024 897.852C164.713 895.97 166.232 895.244 167.901 894.402C173.408 891.623 179.91 890.016 185.769 888.036C200.913 882.917 216.792 878.23 231.487 871.99C231.866 853.157 231.562 833.682 231.528 814.81L231.536 727.306L231.523 435.788L231.681 323.697L231.916 294.762C231.958 290.89 231.803 282.625 232.486 279.218C207.828 256.231 181.937 234.149 157.584 210.824C155.209 208.549 153.815 204.709 155.798 201.814C156.639 200.587 158.502 199.695 159.806 199.082C169.769 194.641 179.978 190.773 190.066 186.626L257.712 159.005L362.767 116.278C385.764 106.929 407.831 97.6397 431.116 88.696C446.809 82.716 462.696 77.2554 478.75 72.323C511.498 62.1652 545.334 55.9196 579.551 53.7165Z"/><path fill="#52F4DE" d="M565.561 225.713C620.536 223.52 662.808 255.286 679.248 307.456C684.269 323.393 678.503 343.658 670.07 357.413C636.026 412.942 559.99 434.644 501.217 450.352L450.125 463.783C438.43 466.905 424.816 471.357 412.858 473.169C410.914 473.463 409.238 471.014 409.226 469.05C409.178 460.701 409.203 452.327 409.206 443.966L409.39 388.2C409.516 350.448 408.515 311.166 409.332 273.667C417.729 269.173 437.764 262.018 447.387 258.305C487.32 242.898 522.438 228.146 565.561 225.713Z"/><path fill="#202438" d="M559.387 240.706C607.472 235.27 649.235 262.337 664.928 308.59C669.402 321.777 664.878 337.62 657.926 349.215C628.583 398.153 561.142 418.833 509.747 433.054C481.079 440.811 452.333 448.279 423.514 455.456L423.565 283.082C427.469 281.436 431.649 279.842 435.616 278.343C475.257 263.361 516.904 244.952 559.387 240.706Z"/><path fill="#C937FE" d="M315.498 213.952C323.602 210.186 337.576 205.266 346.388 201.872C363.671 195.222 380.899 188.432 398.071 181.502L441.783 164.134C458.8 157.252 479.422 148.613 496.763 143.41C542.974 129.917 597.255 119.68 643.775 137.382C698.534 158.22 742.609 201.985 767.119 254.779C816.663 361.497 739.314 459.699 643.836 503.41C627.924 510.616 611.641 516.974 595.055 522.455C573.464 529.42 550.892 535.442 529.001 541.457C504.706 548.315 480.345 554.933 455.919 561.309L405.174 574.313C401.51 575.243 380.762 583.745 384.958 572.318C387.026 569.83 445.94 555.255 454.097 553.114L529.29 533.013C598.587 514.535 663.747 495.682 716.719 444.074C753.591 408.151 777.984 361.695 773.705 308.853C769.755 260.072 737.048 212.145 700.593 180.865C659.163 145.913 618.756 132.121 564.775 137.735C514.04 143.011 478.221 159.062 431.742 177.718L365.144 203.906C355.636 207.673 338.004 215.503 329.108 218.389C326.134 216.538 319.105 214.881 315.498 213.952Z"/><path fill="#C937FE" d="M317.959 241.003L318.016 838.908L310.088 838.815L309.964 241.564C313.305 241.555 314.605 241.514 317.959 241.003Z"/><path fill="#52F4DE" d="M310.088 838.815L318.016 838.908C326.461 840.614 341.145 848.148 333.913 858.784C327.445 868.55 306.487 869.611 297.731 862.58C283.278 850.972 297.658 841.067 310.088 838.815Z"/><path fill="#52F4DE" d="M315.498 213.952C319.105 214.881 326.134 216.538 329.108 218.389C341.179 230.103 329.187 237.492 317.959 241.003C314.605 241.514 313.305 241.555 309.964 241.564C281.11 235.972 287.189 213.674 315.498 213.952Z"/></svg>